# xmcd CD database file
#
# Track frame offsets:
#	150
#	39018
#	56480
#	66240
#	82920
#	93140
#	126998
#	138790
#	173880
#
# Disc length: 2572 seconds
#
# Revision: 0
# Processed by: cddbd v1.5.1PL0 Copyright (c) Steve Scherf et al.
# Submitted via: CDex 1.51
#
DISCID=690a0a09
DTITLE=宮川泰 - ヤマトよ永遠に DISC 2
DYEAR=1995
DGENRE=Anime
TTITLE0=ヤマトよ永遠に−サーシャ(澪)に捧ぐ−
TTITLE1=地球攻防戦
TTITLE2=悲恋
TTITLE3=新宇宙 II(二重銀河)
TTITLE4=信じあう二人
TTITLE5=母星(デザリアム)の崩壊
TTITLE6=澪(ミオ)のマーチ
TTITLE7=大決戦
TTITLE8=新銀河誕生
EXTD=YEAR: 1995
EXTT0=
EXTT1=
EXTT2=
EXTT3=
EXTT4=
EXTT5=
EXTT6=
EXTT7=
EXTT8=
PLAYORDER=
